<svg xmlns="http://www.w3.org/2000/svg" viewBox="0 0 400 400" width="400" height="400"><rect width="400" height="400" fill="#0c0d11"/><title>GrowthVireX — dark</title><g transform="translate(200,200)"><line x1="0" y1="0" x2="0" y2="-74" stroke="#7c9cff" stroke-width="2.0" stroke-linecap="round"/><line x1="0" y1="0" x2="70" y2="-23" stroke="#7c9cff" stroke-width="2.0" stroke-linecap="round"/><line x1="0" y1="0" x2="44" y2="60" stroke="#7c9cff" stroke-width="2.0" stroke-linecap="round"/><line x1="0" y1="0" x2="-44" y2="60" stroke="#7c9cff" stroke-width="2.0" stroke-linecap="round"/><line x1="0" y1="0" x2="-70" y2="-23" stroke="#7c9cff" stroke-width="2.0" stroke-linecap="round"/><line x1="0" y1="-74" x2="-31" y2="-116" stroke="#7c9cff" stroke-width="1.5" stroke-linecap="round"/><line x1="0" y1="-74" x2="31" y2="-116" stroke="#7c9cff" stroke-width="1.5" stroke-linecap="round"/><line x1="-31" y1="-116" x2="-63" y2="-137" stroke="#7c9cff" stroke-width="1.1" stroke-linecap="round"/><line x1="-31" y1="-116" x2="-42" y2="-153" stroke="#7c9cff" stroke-width="1.1" stroke-linecap="round"/><line x1="31" y1="-116" x2="42" y2="-153" stroke="#7c9cff" stroke-width="1.1" stroke-linecap="round"/><line x1="31" y1="-116" x2="63" y2="-137" stroke="#7c9cff" stroke-width="1.1" stroke-linecap="round"/><line x1="-63" y1="-137" x2="-84" y2="-144" stroke="#7c9cff" stroke-width="0.85" stroke-linecap="round" opacity="0.6"/><line x1="-63" y1="-137" x2="-77" y2="-156" stroke="#7c9cff" stroke-width="0.85" stroke-linecap="round" opacity="0.6"/><line x1="63" y1="-137" x2="84" y2="-144" stroke="#7c9cff" stroke-width="0.85" stroke-linecap="round" opacity="0.6"/><line x1="63" y1="-137" x2="77" y2="-156" stroke="#7c9cff" stroke-width="0.85" stroke-linecap="round" opacity="0.6"/><line x1="-42" y1="-153" x2="-47" y2="-172" stroke="#7c9cff" stroke-width="0.85" stroke-linecap="round" opacity="0.6"/><line x1="42" y1="-153" x2="47" y2="-172" stroke="#7c9cff" stroke-width="0.85" stroke-linecap="round" opacity="0.6"/><line x1="70" y1="-23" x2="101" y2="-65" stroke="#7c9cff" stroke-width="1.5" stroke-linecap="round"/><line x1="70" y1="-23" x2="120" y2="-7" stroke="#7c9cff" stroke-width="1.5" stroke-linecap="round"/><line x1="101" y1="-65" x2="112" y2="-102" stroke="#7c9cff" stroke-width="1.1" stroke-linecap="round"/><line x1="101" y1="-65" x2="133" y2="-86" stroke="#7c9cff" stroke-width="1.1" stroke-linecap="round"/><line x1="120" y1="-7" x2="158" y2="-8" stroke="#7c9cff" stroke-width="1.1" stroke-linecap="round"/><line x1="120" y1="-7" x2="150" y2="16" stroke="#7c9cff" stroke-width="1.1" stroke-linecap="round"/><line x1="133" y1="-86" x2="150" y2="-79" stroke="#7c9cff" stroke-width="0.85" stroke-linecap="round" opacity="0.6"/><line x1="133" y1="-86" x2="144" y2="-103" stroke="#7c9cff" stroke-width="0.85" stroke-linecap="round" opacity="0.6"/><line x1="158" y1="-8" x2="178" y2="-12" stroke="#7c9cff" stroke-width="0.85" stroke-linecap="round" opacity="0.6"/><line x1="150" y1="16" x2="168" y2="22" stroke="#7c9cff" stroke-width="0.85" stroke-linecap="round" opacity="0.6"/><line x1="44" y1="60" x2="94" y2="76" stroke="#7c9cff" stroke-width="1.5" stroke-linecap="round"/><line x1="44" y1="60" x2="44" y2="112" stroke="#7c9cff" stroke-width="1.5" stroke-linecap="round"/><line x1="94" y1="76" x2="132" y2="75" stroke="#7c9cff" stroke-width="1.1" stroke-linecap="round"/><line x1="94" y1="76" x2="124" y2="99" stroke="#7c9cff" stroke-width="1.1" stroke-linecap="round"/><line x1="44" y1="112" x2="57" y2="148" stroke="#7c9cff" stroke-width="1.1" stroke-linecap="round"/><line x1="44" y1="112" x2="31" y2="148" stroke="#7c9cff" stroke-width="1.1" stroke-linecap="round"/><line x1="132" y1="75" x2="153" y2="70" stroke="#7c9cff" stroke-width="0.85" stroke-linecap="round" opacity="0.6"/><line x1="124" y1="99" x2="140" y2="115" stroke="#7c9cff" stroke-width="0.85" stroke-linecap="round" opacity="0.6"/><line x1="57" y1="148" x2="63" y2="168" stroke="#7c9cff" stroke-width="0.85" stroke-linecap="round" opacity="0.6"/><line x1="31" y1="148" x2="25" y2="168" stroke="#7c9cff" stroke-width="0.85" stroke-linecap="round" opacity="0.6"/><line x1="-44" y1="60" x2="-44" y2="112" stroke="#7c9cff" stroke-width="1.5" stroke-linecap="round"/><line x1="-44" y1="60" x2="-94" y2="76" stroke="#7c9cff" stroke-width="1.5" stroke-linecap="round"/><line x1="-44" y1="112" x2="-57" y2="148" stroke="#7c9cff" stroke-width="1.1" stroke-linecap="round"/><line x1="-44" y1="112" x2="-31" y2="148" stroke="#7c9cff" stroke-width="1.1" stroke-linecap="round"/><line x1="-94" y1="76" x2="-132" y2="75" stroke="#7c9cff" stroke-width="1.1" stroke-linecap="round"/><line x1="-94" y1="76" x2="-124" y2="99" stroke="#7c9cff" stroke-width="1.1" stroke-linecap="round"/><line x1="-57" y1="148" x2="-63" y2="168" stroke="#7c9cff" stroke-width="0.85" stroke-linecap="round" opacity="0.6"/><line x1="-31" y1="148" x2="-25" y2="168" stroke="#7c9cff" stroke-width="0.85" stroke-linecap="round" opacity="0.6"/><line x1="-132" y1="75" x2="-153" y2="70" stroke="#7c9cff" stroke-width="0.85" stroke-linecap="round" opacity="0.6"/><line x1="-124" y1="99" x2="-140" y2="115" stroke="#7c9cff" stroke-width="0.85" stroke-linecap="round" opacity="0.6"/><line x1="-70" y1="-23" x2="-120" y2="-7" stroke="#7c9cff" stroke-width="1.5" stroke-linecap="round"/><line x1="-70" y1="-23" x2="-101" y2="-65" stroke="#7c9cff" stroke-width="1.5" stroke-linecap="round"/><line x1="-120" y1="-7" x2="-158" y2="-8" stroke="#7c9cff" stroke-width="1.1" stroke-linecap="round"/><line x1="-120" y1="-7" x2="-150" y2="16" stroke="#7c9cff" stroke-width="1.1" stroke-linecap="round"/><line x1="-101" y1="-65" x2="-112" y2="-102" stroke="#7c9cff" stroke-width="1.1" stroke-linecap="round"/><line x1="-101" y1="-65" x2="-133" y2="-86" stroke="#7c9cff" stroke-width="1.1" stroke-linecap="round"/><line x1="-158" y1="-8" x2="-178" y2="-12" stroke="#7c9cff" stroke-width="0.85" stroke-linecap="round" opacity="0.6"/><line x1="-150" y1="16" x2="-168" y2="22" stroke="#7c9cff" stroke-width="0.85" stroke-linecap="round" opacity="0.6"/><line x1="-133" y1="-86" x2="-150" y2="-79" stroke="#7c9cff" stroke-width="0.85" stroke-linecap="round" opacity="0.6"/><line x1="-133" y1="-86" x2="-144" y2="-103" stroke="#7c9cff" stroke-width="0.85" stroke-linecap="round" opacity="0.6"/><circle cx="-84" cy="-144" r="1.8" fill="#7c9cff" opacity="0.5"/><circle cx="-77" cy="-156" r="1.8" fill="#7c9cff" opacity="0.5"/><circle cx="84" cy="-144" r="1.8" fill="#7c9cff" opacity="0.5"/><circle cx="77" cy="-156" r="1.8" fill="#7c9cff" opacity="0.5"/><circle cx="-47" cy="-172" r="1.8" fill="#7c9cff" opacity="0.5"/><circle cx="47" cy="-172" r="1.8" fill="#7c9cff" opacity="0.5"/><circle cx="150" cy="-79" r="1.8" fill="#7c9cff" opacity="0.5"/><circle cx="144" cy="-103" r="1.8" fill="#7c9cff" opacity="0.5"/><circle cx="178" cy="-12" r="1.8" fill="#7c9cff" opacity="0.5"/><circle cx="168" cy="22" r="1.8" fill="#7c9cff" opacity="0.5"/><circle cx="153" cy="70" r="1.8" fill="#7c9cff" opacity="0.5"/><circle cx="140" cy="115" r="1.8" fill="#7c9cff" opacity="0.5"/><circle cx="63" cy="168" r="1.8" fill="#7c9cff" opacity="0.5"/><circle cx="25" cy="168" r="1.8" fill="#7c9cff" opacity="0.5"/><circle cx="-63" cy="168" r="1.8" fill="#7c9cff" opacity="0.5"/><circle cx="-25" cy="168" r="1.8" fill="#7c9cff" opacity="0.5"/><circle cx="-153" cy="70" r="1.8" fill="#7c9cff" opacity="0.5"/><circle cx="-140" cy="115" r="1.8" fill="#7c9cff" opacity="0.5"/><circle cx="-178" cy="-12" r="1.8" fill="#7c9cff" opacity="0.5"/><circle cx="-168" cy="22" r="1.8" fill="#7c9cff" opacity="0.5"/><circle cx="-150" cy="-79" r="1.8" fill="#7c9cff" opacity="0.5"/><circle cx="-144" cy="-103" r="1.8" fill="#7c9cff" opacity="0.5"/><circle cx="-63" cy="-137" r="2.6" fill="#7c9cff" opacity="0.72"/><circle cx="-42" cy="-153" r="2.6" fill="#7c9cff" opacity="0.72"/><circle cx="42" cy="-153" r="2.6" fill="#7c9cff" opacity="0.72"/><circle cx="63" cy="-137" r="2.6" fill="#7c9cff" opacity="0.72"/><circle cx="112" cy="-102" r="2.6" fill="#7c9cff" opacity="0.72"/><circle cx="133" cy="-86" r="2.6" fill="#7c9cff" opacity="0.72"/><circle cx="158" cy="-8" r="2.6" fill="#7c9cff" opacity="0.72"/><circle cx="150" cy="16" r="2.6" fill="#7c9cff" opacity="0.72"/><circle cx="132" cy="75" r="2.6" fill="#7c9cff" opacity="0.72"/><circle cx="124" cy="99" r="2.6" fill="#7c9cff" opacity="0.72"/><circle cx="57" cy="148" r="2.6" fill="#7c9cff" opacity="0.72"/><circle cx="31" cy="148" r="2.6" fill="#7c9cff" opacity="0.72"/><circle cx="-31" cy="148" r="2.6" fill="#7c9cff" opacity="0.72"/><circle cx="-57" cy="148" r="2.6" fill="#7c9cff" opacity="0.72"/><circle cx="-124" cy="99" r="2.6" fill="#7c9cff" opacity="0.72"/><circle cx="-132" cy="75" r="2.6" fill="#7c9cff" opacity="0.72"/><circle cx="-158" cy="-8" r="2.6" fill="#7c9cff" opacity="0.72"/><circle cx="-150" cy="16" r="2.6" fill="#7c9cff" opacity="0.72"/><circle cx="-133" cy="-86" r="2.6" fill="#7c9cff" opacity="0.72"/><circle cx="-112" cy="-102" r="2.6" fill="#7c9cff" opacity="0.72"/><circle cx="-31" cy="-116" r="3.6" fill="#7c9cff" opacity="0.88"/><circle cx="31" cy="-116" r="3.6" fill="#7c9cff" opacity="0.88"/><circle cx="101" cy="-65" r="3.6" fill="#7c9cff" opacity="0.88"/><circle cx="120" cy="-7" r="3.6" fill="#7c9cff" opacity="0.88"/><circle cx="94" cy="76" r="3.6" fill="#7c9cff" opacity="0.88"/><circle cx="44" cy="112" r="3.6" fill="#7c9cff" opacity="0.88"/><circle cx="-44" cy="112" r="3.6" fill="#7c9cff" opacity="0.88"/><circle cx="-94" cy="76" r="3.6" fill="#7c9cff" opacity="0.88"/><circle cx="-120" cy="-7" r="3.6" fill="#7c9cff" opacity="0.88"/><circle cx="-101" cy="-65" r="3.6" fill="#7c9cff" opacity="0.88"/><circle cx="0" cy="-74" r="5.0" fill="#7c9cff"/><circle cx="70" cy="-23" r="5.0" fill="#7c9cff"/><circle cx="44" cy="60" r="5.0" fill="#7c9cff"/><circle cx="-44" cy="60" r="5.0" fill="#7c9cff"/><circle cx="-70" cy="-23" r="5.0" fill="#7c9cff"/><circle cx="0" cy="0" r="9" fill="#7c9cff"/></g></svg>